<svg width="118" height="36" viewBox="0 0 118 36" fill="none" xmlns="http://www.w3.org/2000/svg">
    <path d="M40.8 24C40.6667 24 40.5533 23.9533 40.46 23.86C40.3667 23.7667 40.32 23.6533 40.32 23.52V14.08C40.32 13.9467 40.3667 13.8333 40.46 13.74C40.5533 13.6467 40.6667 13.6 40.8 13.6H42.44C42.5733 13.6 42.6867 13.6467 42.78 13.74C42.8733 13.8333 42.92 13.9467 42.92 14.08V14.9C43.2667 14.4733 43.7067 14.12 44.24 13.84C44.7867 13.5467 45.46 13.4 46.26 13.4C47.0733 13.4 47.78 13.5867 48.38 13.96C48.98 14.32 49.44 14.8333 49.76 15.5C50.0933 16.1667 50.26 16.9667 50.26 17.9V23.52C50.26 23.6533 50.2133 23.7667 50.12 23.86C50.0267 23.9533 49.9133 24 49.78 24H48.02C47.8867 24 47.7733 23.9533 47.68 23.86C47.5867 23.7667 47.54 23.6533 47.54 23.52V18.02C47.54 17.2467 47.3467 16.64 46.96 16.2C46.5867 15.76 46.04 15.54 45.32 15.54C44.6267 15.54 44.0733 15.76 43.66 16.2C43.2467 16.64 43.04 17.2467 43.04 18.02V23.52C43.04 23.6533 42.9933 23.7667 42.9 23.86C42.8067 23.9533 42.6933 24 42.56 24H40.8ZM55.8205 24.2C55.1271 24.2 54.5005 24.0667 53.9405 23.8C53.3805 23.52 52.9338 23.1533 52.6005 22.7C52.2805 22.2333 52.1205 21.7133 52.1205 21.14C52.1205 20.2067 52.4938 19.4667 53.2405 18.92C54.0005 18.36 55.0005 17.9867 56.2405 17.8L58.9805 17.4V16.98C58.9805 16.42 58.8405 15.9867 58.5605 15.68C58.2805 15.3733 57.8005 15.22 57.1205 15.22C56.6405 15.22 56.2471 15.32 55.9405 15.52C55.6471 15.7067 55.4271 15.96 55.2805 16.28C55.1738 16.4533 55.0205 16.54 54.8205 16.54H53.2405C53.0938 16.54 52.9805 16.5 52.9005 16.42C52.8338 16.34 52.8005 16.2333 52.8005 16.1C52.8138 15.8867 52.9005 15.6267 53.0605 15.32C53.2205 15.0133 53.4738 14.72 53.8205 14.44C54.1671 14.1467 54.6138 13.9 55.1605 13.7C55.7071 13.5 56.3671 13.4 57.1405 13.4C57.9805 13.4 58.6871 13.5067 59.2605 13.72C59.8471 13.92 60.3138 14.1933 60.6605 14.54C61.0071 14.8867 61.2605 15.2933 61.4205 15.76C61.5805 16.2267 61.6605 16.72 61.6605 17.24V23.52C61.6605 23.6533 61.6138 23.7667 61.5205 23.86C61.4271 23.9533 61.3138 24 61.1805 24H59.5605C59.4138 24 59.2938 23.9533 59.2005 23.86C59.1205 23.7667 59.0805 23.6533 59.0805 23.52V22.74C58.9071 22.9933 58.6738 23.2333 58.3805 23.46C58.0871 23.6733 57.7271 23.8533 57.3005 24C56.8871 24.1333 56.3938 24.2 55.8205 24.2ZM56.5005 22.3C56.9671 22.3 57.3871 22.2 57.7605 22C58.1471 21.8 58.4471 21.4933 58.6605 21.08C58.8871 20.6533 59.0005 20.12 59.0005 19.48V19.06L57.0005 19.38C56.2138 19.5 55.6271 19.6933 55.2405 19.96C54.8538 20.2267 54.6605 20.5533 54.6605 20.94C54.6605 21.2333 54.7471 21.4867 54.9205 21.7C55.1071 21.9 55.3405 22.0533 55.6205 22.16C55.9005 22.2533 56.1938 22.3 56.5005 22.3ZM64.7263 27.8C64.5929 27.8 64.4796 27.7533 64.3863 27.66C64.2929 27.5667 64.2463 27.4533 64.2463 27.32V14.08C64.2463 13.9467 64.2929 13.8333 64.3863 13.74C64.4796 13.6467 64.5929 13.6 64.7263 13.6H66.3063C66.4529 13.6 66.5663 13.6467 66.6463 13.74C66.7396 13.8333 66.7863 13.9467 66.7863 14.08V14.88C67.1063 14.4533 67.5263 14.1 68.0462 13.82C68.5663 13.54 69.2129 13.4 69.9863 13.4C70.6929 13.4 71.3063 13.5133 71.8263 13.74C72.3463 13.9667 72.7796 14.2933 73.1263 14.72C73.4729 15.1333 73.7396 15.6267 73.9262 16.2C74.1129 16.7733 74.2196 17.4067 74.2463 18.1C74.2596 18.3267 74.2663 18.56 74.2663 18.8C74.2663 19.04 74.2596 19.28 74.2463 19.52C74.2329 20.1867 74.1329 20.8067 73.9463 21.38C73.7596 21.94 73.4863 22.4333 73.1263 22.86C72.7796 23.2733 72.3463 23.6 71.8263 23.84C71.3063 24.08 70.6929 24.2 69.9863 24.2C69.2663 24.2 68.6529 24.0733 68.1463 23.82C67.6396 23.5533 67.2263 23.2067 66.9063 22.78V27.32C66.9063 27.4533 66.8596 27.5667 66.7663 27.66C66.6863 27.7533 66.5729 27.8 66.4263 27.8H64.7263ZM69.2463 22.06C69.8196 22.06 70.2663 21.94 70.5863 21.7C70.9063 21.4467 71.1329 21.12 71.2663 20.72C71.4129 20.32 71.4996 19.88 71.5263 19.4C71.5529 19 71.5529 18.6 71.5263 18.2C71.4996 17.72 71.4129 17.28 71.2663 16.88C71.1329 16.48 70.9063 16.16 70.5863 15.92C70.2663 15.6667 69.8196 15.54 69.2463 15.54C68.6996 15.54 68.2529 15.6667 67.9062 15.92C67.5729 16.1733 67.3263 16.5 67.1663 16.9C67.0196 17.2867 66.9329 17.6867 66.9063 18.1C66.8929 18.34 66.8863 18.5933 66.8863 18.86C66.8863 19.1267 66.8929 19.3867 66.9063 19.64C66.9196 20.04 67.0129 20.4267 67.1863 20.8C67.3596 21.16 67.6129 21.46 67.9463 21.7C68.2796 21.94 68.7129 22.06 69.2463 22.06ZM81.8017 24C81.6684 24 81.5551 23.9533 81.4617 23.86C81.3684 23.7667 81.3217 23.6533 81.3217 23.52V10.5C81.3217 10.3533 81.3684 10.2333 81.4617 10.14C81.5551 10.0467 81.6684 10 81.8017 10H87.6017C88.6817 10 89.5617 10.1667 90.2417 10.5C90.9217 10.82 91.4217 11.2667 91.7417 11.84C92.0751 12.4133 92.2417 13.08 92.2417 13.84C92.2417 14.3467 92.1484 14.7933 91.9617 15.18C91.7884 15.5533 91.5684 15.86 91.3017 16.1C91.0484 16.34 90.7951 16.5267 90.5417 16.66C91.0617 16.9 91.5217 17.3 91.9217 17.86C92.3217 18.42 92.5217 19.0867 92.5217 19.86C92.5217 20.66 92.3417 21.3733 91.9817 22C91.6217 22.6267 91.0884 23.12 90.3817 23.48C89.6751 23.8267 88.8017 24 87.7617 24H81.8017ZM84.1017 21.88H87.4417C88.1617 21.88 88.7084 21.6867 89.0817 21.3C89.4551 20.9 89.6417 20.42 89.6417 19.86C89.6417 19.2733 89.4484 18.7867 89.0617 18.4C88.6884 18.0133 88.1484 17.82 87.4417 17.82H84.1017V21.88ZM84.1017 15.74H87.2417C87.9484 15.74 88.4751 15.5733 88.8217 15.24C89.1817 14.8933 89.3617 14.4467 89.3617 13.9C89.3617 13.34 89.1817 12.9067 88.8217 12.6C88.4751 12.28 87.9484 12.12 87.2417 12.12H84.1017V15.74ZM98.6527 24.2C97.8393 24.2 97.1327 24.02 96.5327 23.66C95.946 23.2867 95.4927 22.7667 95.1727 22.1C94.8527 21.42 94.6927 20.62 94.6927 19.7V14.08C94.6927 13.9467 94.7393 13.8333 94.8327 13.74C94.926 13.6467 95.0393 13.6 95.1727 13.6H96.9327C97.0793 13.6 97.1927 13.6467 97.2727 13.74C97.366 13.8333 97.4127 13.9467 97.4127 14.08V19.58C97.4127 21.2333 98.1393 22.06 99.5927 22.06C100.286 22.06 100.833 21.84 101.233 21.4C101.646 20.96 101.853 20.3533 101.853 19.58V14.08C101.853 13.9467 101.899 13.8333 101.993 13.74C102.086 13.6467 102.199 13.6 102.333 13.6H104.093C104.226 13.6 104.339 13.6467 104.433 13.74C104.526 13.8333 104.573 13.9467 104.573 14.08V23.52C104.573 23.6533 104.526 23.7667 104.433 23.86C104.339 23.9533 104.226 24 104.093 24H102.473C102.326 24 102.206 23.9533 102.113 23.86C102.033 23.7667 101.993 23.6533 101.993 23.52V22.7C101.633 23.1667 101.186 23.5333 100.653 23.8C100.119 24.0667 99.4527 24.2 98.6527 24.2ZM109.095 27.8C108.988 27.8 108.895 27.76 108.815 27.68C108.735 27.6 108.695 27.5067 108.695 27.4C108.695 27.3467 108.695 27.2933 108.695 27.24C108.708 27.2 108.735 27.1467 108.775 27.08L110.335 23.38L106.495 14.32C106.441 14.1867 106.415 14.0933 106.415 14.04C106.428 13.92 106.475 13.82 106.555 13.74C106.635 13.6467 106.735 13.6 106.855 13.6H108.475C108.635 13.6 108.755 13.64 108.835 13.72C108.915 13.8 108.975 13.8867 109.015 13.98L111.675 20.52L114.415 13.98C114.455 13.8733 114.515 13.7867 114.595 13.72C114.675 13.64 114.795 13.6 114.955 13.6H116.555C116.661 13.6 116.755 13.64 116.835 13.72C116.928 13.8 116.975 13.8933 116.975 14C116.975 14.08 116.948 14.1867 116.895 14.32L111.235 27.42C111.181 27.5267 111.115 27.6133 111.035 27.68C110.955 27.76 110.835 27.8 110.675 27.8H109.095Z" fill="#006400"/>
    <circle cx="18" cy="18" r="18" fill="#006400"/>
    <path d="M22.988 28.28C21.252 28.28 19.796 28.028 18.62 27.524C17.4627 27.0013 16.576 26.3293 15.96 25.508C15.3627 24.668 15.0453 23.7907 15.008 22.876C15.008 22.708 15.064 22.568 15.176 22.456C15.288 22.344 15.428 22.288 15.596 22.288H18.088C18.3307 22.288 18.508 22.344 18.62 22.456C18.7507 22.5493 18.8627 22.6707 18.956 22.82C19.068 23.1747 19.2827 23.5293 19.6 23.884C19.9173 24.22 20.3467 24.5 20.888 24.724C21.448 24.948 22.148 25.06 22.988 25.06C24.332 25.06 25.3307 24.836 25.984 24.388C26.656 23.94 26.992 23.3333 26.992 22.568C26.992 22.0267 26.8147 21.5973 26.46 21.28C26.1053 20.944 25.5547 20.6453 24.808 20.384C24.08 20.104 23.1093 19.8147 21.896 19.516C20.496 19.18 19.32 18.7787 18.368 18.312C17.4347 17.8267 16.7253 17.22 16.24 16.492C15.7733 15.764 15.54 14.84 15.54 13.72C15.54 12.6373 15.8293 11.676 16.408 10.836C17.0053 9.996 17.8453 9.33333 18.928 8.848C20.0293 8.36267 21.336 8.12 22.848 8.12C24.0613 8.12 25.1347 8.288 26.068 8.624C27.0013 8.94133 27.776 9.37067 28.392 9.912C29.008 10.4347 29.4747 11.004 29.792 11.62C30.128 12.2173 30.3053 12.8053 30.324 13.384C30.324 13.5333 30.268 13.6733 30.156 13.804C30.0627 13.916 29.9227 13.972 29.736 13.972H27.132C26.9827 13.972 26.8333 13.9347 26.684 13.86C26.5347 13.7853 26.4133 13.6453 26.32 13.44C26.208 12.8613 25.844 12.3667 25.228 11.956C24.612 11.5453 23.8187 11.34 22.848 11.34C21.84 11.34 21.028 11.5267 20.412 11.9C19.796 12.2733 19.488 12.852 19.488 13.636C19.488 14.1587 19.6373 14.5973 19.936 14.952C20.2533 15.288 20.748 15.5867 21.42 15.848C22.1107 16.1093 23.016 16.3893 24.136 16.688C25.7227 17.0427 27.02 17.4533 28.028 17.92C29.036 18.3867 29.7733 18.984 30.24 19.712C30.7067 20.4213 30.94 21.3267 30.94 22.428C30.94 23.66 30.604 24.7147 29.932 25.592C29.2787 26.4507 28.3547 27.1133 27.16 27.58C25.9653 28.0467 24.5747 28.28 22.988 28.28Z" fill="#FFF5E1"/>
</svg>
